<svg width="134" height="58" viewBox="0 0 134 58" fill="none" xmlns="http://www.w3.org/2000/svg">
<path d="M1.40625 37V12.3906H4.46484V23.1133H7.62891V26.1016H4.46484V37H1.40625ZM9.38672 26.1016V23.1133H12.5156V12.3906H15.6094V37H12.5156V26.1016H9.38672ZM18.3516 31.7969V23.1133C18.3516 22.0117 18.8438 20.9336 19.8281 19.8789C21.0469 18.6133 22.5703 17.9805 24.3984 17.9805V20.8281C23.0156 20.8281 22.0547 21.4023 21.5156 22.5508C21.3516 22.9023 21.2695 23.2539 21.2695 23.6055V31.3398C21.2695 32.207 21.668 32.9453 22.4648 33.5547C23.0273 33.9766 23.6719 34.1875 24.3984 34.1875V37.0352C22.1719 37.0352 20.4492 36.1328 19.2305 34.3281C18.6445 33.4375 18.3516 32.5938 18.3516 31.7969ZM25.9102 37.0352V34.1875C27.1523 34.1875 28.043 33.625 28.582 32.5C28.7695 32.125 28.8633 31.7617 28.8633 31.4102V23.6055C28.8633 22.6445 28.4531 21.8828 27.6328 21.3203C27.1172 20.9922 26.5312 20.8281 25.875 20.8281V17.9805C28.0312 17.9805 29.6953 18.8594 30.8672 20.6172C31.4531 21.4844 31.7461 22.3164 31.7461 23.1133V31.7969C31.7461 32.9453 31.2539 34.0586 30.2695 35.1367C29.1211 36.3789 27.668 37.0117 25.9102 37.0352ZM34.418 31.9375V18.0156H37.4062V31.5859C37.4062 32.4297 37.8281 33.1328 38.6719 33.6953C39.2344 34.0469 39.8555 34.2227 40.5352 34.2227V37.1758C38.2852 37.1758 36.5508 36.2969 35.332 34.5391C34.7227 33.6484 34.418 32.7812 34.418 31.9375ZM42.082 37.1758V34.2227C43.3477 34.2227 44.2734 33.7188 44.8594 32.7109C45.0703 32.3359 45.1758 31.9609 45.1758 31.5859V18.0156H48.1641V31.9375C48.1641 33.0391 47.6602 34.1289 46.6523 35.207C45.4336 36.4961 43.9102 37.1523 42.082 37.1758ZM50.2031 32.0078L52.9805 31.4805C52.9805 32.5352 53.5312 33.3672 54.6328 33.9766C55.1719 34.2344 55.6875 34.375 56.1797 34.3984V37.1758C53.9062 37.1758 52.207 36.3555 51.082 34.7148C50.4961 33.8477 50.2031 32.9453 50.2031 32.0078ZM50.3789 23.3594C50.3789 21.2266 51.3516 19.6445 53.2969 18.6133C54.2344 18.1211 55.1719 17.875 56.1094 17.875V20.6172C55.0312 20.6172 54.1992 21.0625 53.6133 21.9531C53.3086 22.3984 53.1562 22.8672 53.1562 23.3594C53.1562 24.1094 53.7422 24.7188 54.9141 25.1875C55.8047 25.5625 57.5273 26.0547 60.082 26.6641C61.6758 26.9922 62.8125 27.7773 63.4922 29.0195C63.8438 29.6758 64.0195 30.4141 64.0195 31.2344C64.0195 33.4844 63.1172 35.1484 61.3125 36.2266C60.2578 36.8594 59.0508 37.1758 57.6914 37.1758V34.3984C58.7695 34.3984 59.6719 34.0234 60.3984 33.2734C60.9141 32.7344 61.1719 32.1016 61.1719 31.375C61.1719 30.4375 60.2461 29.6875 58.3945 29.125C57.9258 28.9844 57.1758 28.7852 56.1445 28.5273C55.043 28.2695 54.2461 28.0586 53.7539 27.8945C51.9727 27.1914 50.8945 26.125 50.5195 24.6953C50.4258 24.2734 50.3789 23.8281 50.3789 23.3594ZM57.6562 20.6523V17.875C59.6719 17.875 61.3008 18.625 62.543 20.125C63.3164 21.0859 63.7031 22.0938 63.7031 23.1484L60.9258 23.6055C60.9258 22.3164 60.2227 21.4141 58.8164 20.8984C58.3945 20.7344 58.0078 20.6523 57.6562 20.6523ZM66.0938 31.7969V23.0781C66.1172 22 66.6328 20.9336 67.6406 19.8789C68.8594 18.6367 70.3359 18.0039 72.0703 17.9805V20.7578C70.9453 20.7578 70.0664 21.25 69.4336 22.2344C69.1758 22.6562 69.0469 23.043 69.0469 23.3945V25.7852H76.9219V23.3945C76.9219 22.3398 76.3828 21.5664 75.3047 21.0742C74.8125 20.8398 74.3086 20.7227 73.793 20.7227V17.9805C75.4102 17.9805 76.8516 18.5547 78.1172 19.7031C79.1719 20.7109 79.7109 21.8242 79.7344 23.043V28.6328H69.0469V31.7969C69.0469 32.4531 69.4219 33.0625 70.1719 33.625C70.7812 34.0469 71.4258 34.2578 72.1055 34.2578V37C69.9727 37 68.2969 36.1328 67.0781 34.3984C66.4219 33.4844 66.0938 32.6172 66.0938 31.7969ZM73.793 37V34.2227C75.1992 34.2227 76.2539 33.6133 76.957 32.3945C77.0977 32.1367 77.2031 31.8906 77.2734 31.6562L79.7695 32.5703C79.3477 34.1875 78.3867 35.4062 76.8867 36.2266C75.9258 36.7422 74.8945 37 73.793 37ZM81.4922 12.3906H84.5859L90.8438 33.7656L89.7188 37H88.6289L81.4922 12.3906ZM90.0703 25.4336L94.4297 12.3906H97.5234C97.3125 13.0703 96.4336 15.7891 94.8867 20.5469C93.082 26.0781 92.0508 29.2539 91.793 30.0742H91.4414L90.0703 25.4336ZM99.2109 30.1445V18.5781C99.2109 17.3359 99.7383 16.0703 100.793 14.7812C102.199 13.0938 103.98 12.2383 106.137 12.2148V15.2734C104.707 15.2734 103.594 16 102.797 17.4531C102.469 18.0859 102.305 18.6484 102.305 19.1406V30.1445C102.305 31.6211 103.031 32.7695 104.484 33.5898C105.094 33.9414 105.633 34.1172 106.102 34.1172V37.1758C104.766 37.1758 103.43 36.6953 102.094 35.7344C100.195 34.3281 99.2344 32.4648 99.2109 30.1445ZM108.035 37.1758V34.1172C108.855 34.1172 109.688 33.7539 110.531 33.0273C111.422 32.2305 111.879 31.2695 111.902 30.1445V19.1406C111.902 18.2266 111.527 17.3477 110.777 16.5039C110.004 15.707 109.09 15.2969 108.035 15.2734V12.2148C110.402 12.2148 112.301 13.2344 113.73 15.2734C114.551 16.4453 114.961 17.5469 114.961 18.5781V30.1445C114.961 32.7461 113.801 34.7383 111.48 36.1211C110.262 36.8242 109.113 37.1758 108.035 37.1758ZM117.809 37H120.867V12.3906H117.809V37ZM122.625 25.9961H126.422C129.492 25.9727 131.414 24.8008 132.188 22.4805C132.492 21.543 132.645 20.4297 132.645 19.1406C132.645 14.8516 130.711 12.6016 126.844 12.3906C126.703 12.3906 126.562 12.3906 126.422 12.3906H122.625V15.3438H125.93C128.297 15.3906 129.492 16.6562 129.516 19.1406C129.469 21.6953 128.285 22.9844 125.965 23.0078H122.625V25.9961Z" fill="white"/>
<path d="M2.892 50.584L0.348 46.48H1.308L3.612 50.26H5.208V46.48H6.132V50.26H7.728L10.02 46.48H10.992L8.436 50.584L11.304 55H10.332L7.848 51.004H6.132V55H5.208V51.004H3.492L1.008 55H0.036L2.892 50.584ZM14.7038 53.74L19.9838 46.48H20.6798V55H19.8398V47.86L14.6438 55H13.8758V46.48H14.7038V53.74ZM26.2123 48.736C26.1163 49.864 25.9923 50.828 25.8403 51.628C25.6963 52.428 25.5123 53.084 25.2883 53.596C25.0723 54.1 24.8083 54.472 24.4963 54.712C24.1923 54.944 23.8323 55.06 23.4163 55.06L23.2723 54.256C23.4323 54.248 23.5843 54.216 23.7283 54.16C23.8803 54.104 24.0243 54.004 24.1603 53.86C24.2963 53.708 24.4243 53.504 24.5443 53.248C24.6643 52.984 24.7763 52.648 24.8803 52.24C24.9843 51.824 25.0763 51.324 25.1563 50.74C25.2443 50.156 25.3203 49.464 25.3843 48.664L25.5643 46.48H29.8963V55H29.0683V47.224H26.3323L26.2123 48.736ZM36.957 55.06C36.365 55.06 35.821 54.94 35.325 54.7C34.837 54.452 34.417 54.128 34.065 53.728C33.713 53.32 33.441 52.856 33.249 52.336C33.057 51.816 32.961 51.284 32.961 50.74C32.961 50.172 33.061 49.628 33.261 49.108C33.469 48.588 33.753 48.128 34.113 47.728C34.473 47.328 34.897 47.012 35.385 46.78C35.873 46.54 36.401 46.42 36.969 46.42C37.561 46.42 38.101 46.548 38.589 46.804C39.085 47.052 39.505 47.38 39.849 47.788C40.201 48.196 40.473 48.66 40.665 49.18C40.857 49.692 40.953 50.216 40.953 50.752C40.953 51.32 40.849 51.864 40.641 52.384C40.441 52.904 40.161 53.364 39.801 53.764C39.449 54.156 39.029 54.472 38.541 54.712C38.053 54.944 37.525 55.06 36.957 55.06ZM33.801 50.74C33.801 51.204 33.877 51.652 34.029 52.084C34.181 52.508 34.397 52.888 34.677 53.224C34.957 53.552 35.289 53.816 35.673 54.016C36.057 54.208 36.485 54.304 36.957 54.304C37.437 54.304 37.873 54.2 38.265 53.992C38.657 53.784 38.989 53.512 39.261 53.176C39.533 52.84 39.741 52.46 39.885 52.036C40.037 51.612 40.113 51.18 40.113 50.74C40.113 50.276 40.033 49.832 39.873 49.408C39.721 48.976 39.505 48.596 39.225 48.268C38.945 47.94 38.613 47.68 38.229 47.488C37.845 47.288 37.421 47.188 36.957 47.188C36.477 47.188 36.041 47.292 35.649 47.5C35.257 47.7 34.925 47.968 34.653 48.304C34.381 48.64 34.169 49.02 34.017 49.444C33.873 49.868 33.801 50.3 33.801 50.74ZM49.2567 44.008C49.2407 44.392 49.0767 44.7 48.7647 44.932C48.4607 45.156 48.0367 45.268 47.4927 45.268C46.9487 45.268 46.5207 45.156 46.2087 44.932C45.9047 44.7 45.7447 44.392 45.7287 44.008H46.2447C46.2447 44.112 46.2767 44.212 46.3407 44.308C46.4047 44.404 46.4927 44.488 46.6047 44.56C46.7167 44.632 46.8487 44.692 47.0007 44.74C47.1527 44.78 47.3207 44.8 47.5047 44.8C47.8487 44.8 48.1327 44.728 48.3567 44.584C48.5887 44.432 48.7207 44.24 48.7527 44.008H49.2567ZM44.8167 53.74L50.0967 46.48H50.7927V55H49.9527V47.86L44.7567 55H43.9887V46.48H44.8167V53.74ZM59.7319 50.26H61.0279L63.8119 46.48H64.7719L61.7839 50.584L65.0839 55H64.1239L61.0999 51.004H59.7319V55H58.9039V46.48H59.7319V50.26ZM70.6545 55.06C70.0625 55.06 69.5185 54.94 69.0225 54.7C68.5345 54.452 68.1145 54.128 67.7625 53.728C67.4105 53.32 67.1385 52.856 66.9465 52.336C66.7545 51.816 66.6585 51.284 66.6585 50.74C66.6585 50.172 66.7585 49.628 66.9585 49.108C67.1665 48.588 67.4505 48.128 67.8105 47.728C68.1705 47.328 68.5945 47.012 69.0825 46.78C69.5705 46.54 70.0985 46.42 70.6665 46.42C71.2585 46.42 71.7985 46.548 72.2865 46.804C72.7825 47.052 73.2025 47.38 73.5465 47.788C73.8985 48.196 74.1705 48.66 74.3625 49.18C74.5545 49.692 74.6505 50.216 74.6505 50.752C74.6505 51.32 74.5465 51.864 74.3385 52.384C74.1385 52.904 73.8585 53.364 73.4985 53.764C73.1465 54.156 72.7265 54.472 72.2385 54.712C71.7505 54.944 71.2225 55.06 70.6545 55.06ZM67.4985 50.74C67.4985 51.204 67.5745 51.652 67.7265 52.084C67.8785 52.508 68.0945 52.888 68.3745 53.224C68.6545 53.552 68.9865 53.816 69.3705 54.016C69.7545 54.208 70.1825 54.304 70.6545 54.304C71.1345 54.304 71.5705 54.2 71.9625 53.992C72.3545 53.784 72.6865 53.512 72.9585 53.176C73.2305 52.84 73.4385 52.46 73.5825 52.036C73.7345 51.612 73.8105 51.18 73.8105 50.74C73.8105 50.276 73.7305 49.832 73.5705 49.408C73.4185 48.976 73.2025 48.596 72.9225 48.268C72.6425 47.94 72.3105 47.68 71.9265 47.488C71.5425 47.288 71.1185 47.188 70.6545 47.188C70.1745 47.188 69.7385 47.292 69.3465 47.5C68.9545 47.7 68.6225 47.968 68.3505 48.304C68.0785 48.64 67.8665 49.02 67.7145 49.444C67.5705 49.868 67.4985 50.3 67.4985 50.74ZM85.2222 55V48.004L82.1142 53.416H81.6222L78.5142 48.004V55H77.6742V46.48H78.5382L81.8622 52.312L85.2102 46.48H86.0622V55H85.2222ZM89.6848 46.48H96.2608V55H95.4208V47.224H90.5128V55H89.6848V46.48ZM101.787 48.736C101.691 49.864 101.567 50.828 101.415 51.628C101.271 52.428 101.087 53.084 100.863 53.596C100.647 54.1 100.383 54.472 100.071 54.712C99.767 54.944 99.407 55.06 98.991 55.06L98.847 54.256C99.007 54.248 99.159 54.216 99.303 54.16C99.455 54.104 99.599 54.004 99.735 53.86C99.871 53.708 99.999 53.504 100.119 53.248C100.239 52.984 100.351 52.648 100.455 52.24C100.559 51.824 100.651 51.324 100.731 50.74C100.819 50.156 100.895 49.464 100.959 48.664L101.139 46.48H105.471V55H104.643V47.224H101.907L101.787 48.736ZM114.824 54.256V55H109.1V46.48H114.716V47.224H109.94V50.296H114.104V51.004H109.94V54.256H114.824ZM118.692 50.26H119.988L122.772 46.48H123.732L120.744 50.584L124.044 55H123.084L120.06 51.004H118.692V55H117.864V46.48H118.692V50.26ZM125.607 50.68C125.607 50.168 125.695 49.66 125.871 49.156C126.055 48.644 126.319 48.188 126.663 47.788C127.007 47.388 127.431 47.064 127.935 46.816C128.439 46.56 129.011 46.432 129.651 46.432C130.411 46.432 131.059 46.604 131.595 46.948C132.139 47.292 132.539 47.74 132.795 48.292L132.135 48.7C131.999 48.42 131.831 48.184 131.631 47.992C131.439 47.8 131.231 47.644 131.007 47.524C130.783 47.404 130.551 47.32 130.311 47.272C130.071 47.216 129.835 47.188 129.603 47.188C129.091 47.188 128.639 47.292 128.247 47.5C127.855 47.708 127.523 47.98 127.251 48.316C126.987 48.652 126.787 49.032 126.651 49.456C126.515 49.872 126.447 50.296 126.447 50.728C126.447 51.2 126.527 51.652 126.687 52.084C126.855 52.516 127.079 52.9 127.359 53.236C127.647 53.564 127.983 53.828 128.367 54.028C128.759 54.22 129.183 54.316 129.639 54.316C129.879 54.316 130.123 54.288 130.371 54.232C130.627 54.168 130.871 54.072 131.103 53.944C131.343 53.808 131.563 53.644 131.763 53.452C131.963 53.252 132.131 53.012 132.267 52.732L132.963 53.092C132.827 53.412 132.635 53.696 132.387 53.944C132.139 54.184 131.863 54.388 131.559 54.556C131.255 54.724 130.931 54.852 130.587 54.94C130.251 55.028 129.919 55.072 129.591 55.072C129.007 55.072 128.471 54.944 127.983 54.688C127.495 54.432 127.075 54.1 126.723 53.692C126.371 53.276 126.095 52.808 125.895 52.288C125.703 51.76 125.607 51.224 125.607 50.68Z" fill="white"/>
</svg>
